<svg width="129" height="48" viewBox="0 0 129 48" fill="none" xmlns="http://www.w3.org/2000/svg">
<g filter="url(#filter0_ddd_5201_113805)">
<path fill-rule="evenodd" clip-rule="evenodd" d="M47.0771 3.1936H51.5103V0H47.0742C45.3121 0 43.877 1.43347 43.877 3.1936V7.66464H47.0742V3.19647C47.0746 3.19601 47.075 3.19549 47.0756 3.19497C47.0761 3.19444 47.0766 3.19398 47.0771 3.1936Z" fill="#3A83F6"/>
<path fill-rule="evenodd" clip-rule="evenodd" d="M117.366 0H121.802C123.565 0 125 1.43347 125 3.1936V7.66464H121.802V3.19647C121.802 3.19601 121.802 3.19549 121.801 3.19497C121.8 3.19444 121.8 3.19398 121.799 3.1936H117.366V0Z" fill="#3A83F6"/>
<path fill-rule="evenodd" clip-rule="evenodd" d="M43.877 36.8064V32.3752H47.0742V36.8035C47.0746 36.804 47.075 36.8045 47.0756 36.805C47.0761 36.8055 47.0766 36.806 47.0771 36.8064H51.5103V40H47.0742C45.3121 40 43.877 38.5665 43.877 36.8064Z" fill="#3A83F6"/>
<path fill-rule="evenodd" clip-rule="evenodd" d="M121.802 36.8035V32.3752H125V36.8064C125 38.5665 123.565 40 121.802 40H117.366V36.8064H121.799C121.8 36.806 121.8 36.8055 121.801 36.805C121.802 36.8045 121.802 36.804 121.802 36.8035ZM121.802 36.8064C121.802 36.8065 121.802 36.8066 121.802 36.8066C121.802 36.8066 121.802 36.8066 121.802 36.8066C121.802 36.8066 121.802 36.8065 121.802 36.8064C121.803 36.8064 121.803 36.8064 121.803 36.8064C121.803 36.8064 121.803 36.8064 121.802 36.8064Z" fill="#3A83F6"/>
<path d="M19.9237 28.6108L19.8987 18.1236L14.7491 26.763H12.9243L7.79969 18.3483V28.6108H4V11.1321H7.34972L13.8992 21.9938L20.3486 11.1321H23.6734L23.7234 28.6108H19.9237Z" fill="#3E4857"/>
<path d="M41.4239 25.3647V28.6108H27.875V11.1321H41.0989V14.3781H31.8996V18.1735H40.024V21.3197H31.8996V25.3647H41.4239Z" fill="#3E4857"/>
<path d="M57.5773 11.1323C59.1272 11.1323 60.4687 11.3903 61.602 11.9063C62.7519 12.4224 63.6351 13.1548 64.2518 14.1037C64.8684 15.0525 65.1767 16.1761 65.1767 17.4745C65.1767 18.7563 64.8684 19.8799 64.2518 20.8454C63.6351 21.7943 62.7519 22.5267 61.602 23.0427C60.4687 23.5421 59.1272 23.7918 57.5773 23.7918H54.0526V28.6109H50.0029V11.1323H57.5773ZM57.3523 20.4959C58.5689 20.4959 59.4938 20.2378 60.1271 19.7218C60.7604 19.1891 61.077 18.44 61.077 17.4745C61.077 16.4924 60.7604 15.7433 60.1271 15.2273C59.4938 14.6946 58.5689 14.4283 57.3523 14.4283H54.0526V20.4959H57.3523Z" fill="#3A83F6"/>
<path d="M78.7131 24.8655H70.5887L69.0389 28.6109H64.8892L72.6886 11.1323H76.6882L84.5126 28.6109H80.2629L78.7131 24.8655ZM77.4382 21.7943L74.6634 15.1024L71.8886 21.7943H77.4382Z" fill="#3A83F6"/>
<path d="M97.908 19.5969H101.608V26.6883C100.658 27.4041 99.5578 27.9534 98.3079 28.3363C97.058 28.7192 95.7998 28.9106 94.5332 28.9106C92.7167 28.9106 91.0835 28.5277 89.6336 27.762C88.1838 26.9796 87.0422 25.9059 86.2089 24.5409C85.3923 23.1593 84.984 21.6028 84.984 19.8716C84.984 18.1404 85.3923 16.5923 86.2089 15.2273C87.0422 13.8456 88.1921 12.7719 89.6586 12.0062C91.1252 11.2238 92.775 10.8326 94.6082 10.8326C96.1414 10.8326 97.533 11.0907 98.7829 11.6067C100.033 12.1227 101.083 12.8718 101.933 13.854L99.3328 16.251C98.0829 14.936 96.5747 14.2784 94.8082 14.2784C93.6916 14.2784 92.7001 14.5115 91.8335 14.9776C90.9669 15.4437 90.2919 16.1012 89.8086 16.9502C89.3253 17.7991 89.0837 18.773 89.0837 19.8716C89.0837 20.9536 89.3253 21.9191 89.8086 22.7681C90.2919 23.617 90.9585 24.2829 91.8085 24.7656C92.6751 25.2317 93.6583 25.4648 94.7582 25.4648C95.9248 25.4648 96.9747 25.2151 97.908 24.7157V19.5969Z" fill="#3A83F6"/>
<path d="M118.918 25.3649V28.6109H105.369V11.1323H118.593V14.3783H109.394V18.1737H117.518V21.3198H109.394V25.3649H118.918Z" fill="#3A83F6"/>
</g>
<defs>
<filter id="filter0_ddd_5201_113805" x="0" y="0" width="129" height="48" filterUnits="userSpaceOnUse" color-interpolation-filters="sRGB">
<feFlood flood-opacity="0" result="BackgroundImageFix"/>
<feColorMatrix in="SourceAlpha" type="matrix" values="0 0 0 0 0 0 0 0 0 0 0 0 0 0 0 0 0 0 127 0" result="hardAlpha"/>
<feOffset dy="4"/>
<feGaussianBlur stdDeviation="2"/>
<feComposite in2="hardAlpha" operator="out"/>
<feColorMatrix type="matrix" values="0 0 0 0 0 0 0 0 0 0 0 0 0 0 0 0 0 0 0.25 0"/>
<feBlend mode="normal" in2="BackgroundImageFix" result="effect1_dropShadow_5201_113805"/>
<feColorMatrix in="SourceAlpha" type="matrix" values="0 0 0 0 0 0 0 0 0 0 0 0 0 0 0 0 0 0 127 0" result="hardAlpha"/>
<feOffset dy="4"/>
<feGaussianBlur stdDeviation="2"/>
<feComposite in2="hardAlpha" operator="out"/>
<feColorMatrix type="matrix" values="0 0 0 0 0 0 0 0 0 0 0 0 0 0 0 0 0 0 0.25 0"/>
<feBlend mode="normal" in2="effect1_dropShadow_5201_113805" result="effect2_dropShadow_5201_113805"/>
<feColorMatrix in="SourceAlpha" type="matrix" values="0 0 0 0 0 0 0 0 0 0 0 0 0 0 0 0 0 0 127 0" result="hardAlpha"/>
<feOffset dy="4"/>
<feGaussianBlur stdDeviation="2"/>
<feComposite in2="hardAlpha" operator="out"/>
<feColorMatrix type="matrix" values="0 0 0 0 0 0 0 0 0 0 0 0 0 0 0 0 0 0 0.25 0"/>
<feBlend mode="normal" in2="effect2_dropShadow_5201_113805" result="effect3_dropShadow_5201_113805"/>
<feBlend mode="normal" in="SourceGraphic" in2="effect3_dropShadow_5201_113805" result="shape"/>
</filter>
</defs>
</svg>
